<svg width="50" height="50" viewBox="0 0 50 50" fill="none" xmlns="http://www.w3.org/2000/svg">
<path fill-rule="evenodd" clip-rule="evenodd" d="M18.3125 42.0645L27.2623 6.6875L31.4375 7.87241L22.4878 43.3125L18.3125 42.0645Z" fill="url(#paint0_linear_62101_33)"/>
<path fill-rule="evenodd" clip-rule="evenodd" d="M18.3125 42.0645L27.2623 6.6875L31.4375 7.87241L22.4878 43.3125L18.3125 42.0645Z" fill="url(#paint1_linear_62101_33)"/>
<path fill-rule="evenodd" clip-rule="evenodd" d="M13.5025 12.6875L16.5625 15.9278L7.99501 25.0001L16.5625 34.0721L13.5025 37.3125L1.875 25.0001L13.5025 12.6875Z" fill="url(#paint2_linear_62101_33)"/>
<path fill-rule="evenodd" clip-rule="evenodd" d="M13.5025 12.6875L16.5625 15.9278L7.99501 25.0001L16.5625 34.0721L13.5025 37.3125L1.875 25.0001L13.5025 12.6875Z" fill="url(#paint3_linear_62101_33)"/>
<path fill-rule="evenodd" clip-rule="evenodd" d="M36.4976 12.6875L33.4375 15.9278L42.0051 25.0001L33.4375 34.0721L36.4976 37.3125L48.125 25.0001L36.4976 12.6875Z" fill="url(#paint4_linear_62101_33)"/>
<path fill-rule="evenodd" clip-rule="evenodd" d="M36.4976 12.6875L33.4375 15.9278L42.0051 25.0001L33.4375 34.0721L36.4976 37.3125L48.125 25.0001L36.4976 12.6875Z" fill="url(#paint5_linear_62101_33)"/>
<defs>
<linearGradient id="paint0_linear_62101_33" x1="24.875" y1="6.6875" x2="24.875" y2="43.3125" gradientUnits="userSpaceOnUse">
<stop stop-color="#7572D5"/>
<stop offset="1" stop-color="#3D3B6F"/>
</linearGradient>
<linearGradient id="paint1_linear_62101_33" x1="24.875" y1="6.6875" x2="24.875" y2="43.3125" gradientUnits="userSpaceOnUse">
<stop stop-color="#13ADC7"/>
<stop offset="0.67" stop-color="#6978D1"/>
<stop offset="1" stop-color="#945DD6"/>
</linearGradient>
<linearGradient id="paint2_linear_62101_33" x1="9.21875" y1="12.6875" x2="9.21875" y2="37.3125" gradientUnits="userSpaceOnUse">
<stop stop-color="#7572D5"/>
<stop offset="1" stop-color="#3D3B6F"/>
</linearGradient>
<linearGradient id="paint3_linear_62101_33" x1="9.21875" y1="12.6875" x2="9.21875" y2="37.3125" gradientUnits="userSpaceOnUse">
<stop stop-color="#13ADC7"/>
<stop offset="0.67" stop-color="#6978D1"/>
<stop offset="1" stop-color="#945DD6"/>
</linearGradient>
<linearGradient id="paint4_linear_62101_33" x1="40.7812" y1="12.6875" x2="40.7813" y2="37.3125" gradientUnits="userSpaceOnUse">
<stop stop-color="#7572D5"/>
<stop offset="1" stop-color="#3D3B6F"/>
</linearGradient>
<linearGradient id="paint5_linear_62101_33" x1="40.7812" y1="12.6875" x2="40.7813" y2="37.3125" gradientUnits="userSpaceOnUse">
<stop stop-color="#13ADC7"/>
<stop offset="0.67" stop-color="#6978D1"/>
<stop offset="1" stop-color="#945DD6"/>
</linearGradient>
</defs>
</svg>
