<svg width="38" height="38" viewBox="0 0 38 38" fill="none" xmlns="http://www.w3.org/2000/svg">
<ellipse cx="19" cy="18.9998" rx="19" ry="19" fill="url(#paint0_linear_62107_470)"/>
<ellipse cx="19" cy="18.9998" rx="19" ry="19" fill="url(#paint1_linear_62107_470)"/>
<path d="M9.39756 28.9055H13.3731V14.1959H9.39756V28.9055ZM11.3854 7.70239C10.0602 7.70239 9 8.76255 9 10.0877C9 11.4129 10.0602 12.4731 11.3854 12.4731C12.7105 12.4731 13.7707 11.4129 13.7707 10.0877C13.7707 8.76255 12.7105 7.70239 11.3854 7.70239ZM20.1317 16.4487V14.1959H16.1561V28.9055H20.1317V21.3519C20.1317 17.1113 25.565 16.8462 25.565 21.3519V28.9055H29.5405V19.8942C29.5405 12.7381 21.9869 13.0032 20.1317 16.4487Z" fill="#1F2626"/>
<defs>
<linearGradient id="paint0_linear_62107_470" x1="0" y1="18.9998" x2="38" y2="18.9998" gradientUnits="userSpaceOnUse">
<stop stop-color="#00F5A0"/>
<stop offset="1" stop-color="#00D9F5"/>
</linearGradient>
<linearGradient id="paint1_linear_62107_470" x1="19" y1="-0.000244141" x2="19" y2="37.9998" gradientUnits="userSpaceOnUse">
<stop stop-color="#13ADC7"/>
<stop offset="0.67" stop-color="#6978D1"/>
<stop offset="1" stop-color="#945DD6"/>
</linearGradient>
</defs>
</svg>
