<svg width="38" height="30" viewBox="0 0 38 30" fill="none" xmlns="http://www.w3.org/2000/svg">
<path d="M34.9156 0.340724L1.24935 12.5805C-0.10772 13.1505 -0.563749 14.292 0.923602 14.9115L9.55466 17.4992L30.4427 5.33153C31.5826 4.56763 32.7442 4.77133 31.7454 5.61163L13.8104 20.9221L13.2458 27.4014C13.7669 28.4018 14.7223 28.4065 15.3303 27.9092L20.2917 23.4826L28.7925 29.4824C30.7684 30.5841 31.8431 29.8731 32.2665 27.8538L37.836 2.96912C38.4222 0.483523 37.4343 -0.611576 34.9156 0.340724Z" fill="url(#paint0_linear_62101_28)"/>
<path d="M34.9156 0.340724L1.24935 12.5805C-0.10772 13.1505 -0.563749 14.292 0.923602 14.9115L9.55466 17.4992L30.4427 5.33153C31.5826 4.56763 32.7442 4.77133 31.7454 5.61163L13.8104 20.9221L13.2458 27.4014C13.7669 28.4018 14.7223 28.4065 15.3303 27.9092L20.2917 23.4826L28.7925 29.4824C30.7684 30.5841 31.8431 29.8731 32.2665 27.8538L37.836 2.96912C38.4222 0.483523 37.4343 -0.611576 34.9156 0.340724Z" fill="url(#paint1_linear_62101_28)"/>
<defs>
<linearGradient id="paint0_linear_62101_28" x1="19" y1="-0.000244141" x2="19" y2="29.9998" gradientUnits="userSpaceOnUse">
<stop stop-color="white"/>
<stop offset="1" stop-color="#999999"/>
</linearGradient>
<linearGradient id="paint1_linear_62101_28" x1="19" y1="-0.000244141" x2="19" y2="29.9998" gradientUnits="userSpaceOnUse">
<stop stop-color="#13ADC7"/>
<stop offset="0.67" stop-color="#6978D1"/>
<stop offset="1" stop-color="#945DD6"/>
</linearGradient>
</defs>
</svg>
