<svg width="50" height="50" viewBox="0 0 50 50" fill="none" xmlns="http://www.w3.org/2000/svg">
    <g id="logo">
        <path fill-rule="evenodd" clip-rule="evenodd"
              d="M18.3125 42.0645L27.2623 6.6875L31.4375 7.87241L22.4878 43.3125L18.3125 42.0645Z"
              fill="url(#paint0_linear_62101_33)"/>
        <path fill-rule="evenodd" clip-rule="evenodd"
              d="M18.3125 42.0645L27.2623 6.6875L31.4375 7.87241L22.4878 43.3125L18.3125 42.0645Z"
              fill="url(#paint1_linear_62101_33)"/>
        <path fill-rule="evenodd" clip-rule="evenodd"
              d="M13.5025 12.6875L16.5625 15.9278L7.995 25.0001L16.5625 34.0721L13.5025 37.3125L1.875 25.0001L13.5025 12.6875Z"
              fill="url(#paint2_linear_62101_33)"/>
        <path fill-rule="evenodd" clip-rule="evenodd"
              d="M13.5025 12.6875L16.5625 15.9278L7.995 25.0001L16.5625 34.0721L13.5025 37.3125L1.875 25.0001L13.5025 12.6875Z"
              fill="url(#paint3_linear_62101_33)"/>
        <path fill-rule="evenodd" clip-rule="evenodd"
              d="M36.4976 12.6875L33.4375 15.9278L42.0051 25.0001L33.4375 34.0721L36.4976 37.3125L48.125 25.0001L36.4976 12.6875Z"
              fill="url(#paint4_linear_62101_33)"/>
        <path fill-rule="evenodd" clip-rule="evenodd"
              d="M36.4976 12.6875L33.4375 15.9278L42.0051 25.0001L33.4375 34.0721L36.4976 37.3125L48.125 25.0001L36.4976 12.6875Z"
              fill="url(#paint5_linear_62101_33)"/>
        <defs>
            <linearGradient id="paint0_linear_62101_33" x1="24.875" y1="6.6875" x2="24.875" y2="43.3125"
                            gradientUnits="userSpaceOnUse">
                <stop stop-color="#7572D5"/>
                <stop offset="1" stop-color="#3D3B6F"/>
            </linearGradient>
            <linearGradient id="paint1_linear_62101_33" x1="24.875" y1="6.6875" x2="24.875" y2="43.3125"
                            gradientUnits="userSpaceOnUse">
                <stop stop-color="#13ADC7"/>
                <stop offset="0.67" stop-color="#6978D1"/>
                <stop offset="1" stop-color="#945DD6"/>
            </linearGradient>
            <linearGradient id="paint2_linear_62101_33" x1="9.21875" y1="12.6875" x2="9.21875" y2="37.3125"
                            gradientUnits="userSpaceOnUse">
                <stop stop-color="#7572D5"/>
                <stop offset="1" stop-color="#3D3B6F"/>
            </linearGradient>
            <linearGradient id="paint3_linear_62101_33" x1="9.21875" y1="12.6875" x2="9.21875" y2="37.3125"
                            gradientUnits="userSpaceOnUse">
                <stop stop-color="#13ADC7"/>
                <stop offset="0.67" stop-color="#6978D1"/>
                <stop offset="1" stop-color="#945DD6"/>
            </linearGradient>
            <linearGradient id="paint4_linear_62101_33" x1="40.7812" y1="12.6875" x2="40.7813" y2="37.3125"
                            gradientUnits="userSpaceOnUse">
                <stop stop-color="#7572D5"/>
                <stop offset="1" stop-color="#3D3B6F"/>
            </linearGradient>
            <linearGradient id="paint5_linear_62101_33" x1="40.7812" y1="12.6875" x2="40.7813" y2="37.3125"
                            gradientUnits="userSpaceOnUse">
                <stop stop-color="#13ADC7"/>
                <stop offset="0.67" stop-color="#6978D1"/>
                <stop offset="1" stop-color="#945DD6"/>
            </linearGradient>
        </defs>
    </g>
    >
    <!--social -->
    <g id="git">
        <path fill-rule="evenodd" clip-rule="evenodd"
              d="M19 0C8.5025 0 0 8.71756 0 19.4806C0 28.1007 5.43875 35.3816 12.9913 37.9628C13.9413 38.1332 14.2975 37.5488 14.2975 37.0375C14.2975 36.5748 14.2738 35.0407 14.2738 33.4092C9.5 34.3102 8.265 32.216 7.885 31.1202C7.67125 30.5602 6.745 28.8313 5.9375 28.3686C5.2725 28.0033 4.3225 27.1024 5.91375 27.078C7.41 27.0537 8.47875 28.4904 8.835 29.0748C10.545 32.0212 13.2763 31.1933 14.3688 30.6819C14.535 29.4157 15.0338 28.5634 15.58 28.0764C11.3525 27.5894 6.935 25.9092 6.935 18.4579C6.935 16.3393 7.67125 14.5861 8.8825 13.2224C8.6925 12.7354 8.0275 10.7387 9.0725 8.06009C9.0725 8.06009 10.6637 7.54873 14.2975 10.0569C15.8175 9.61854 17.4325 9.39938 19.0475 9.39938C20.6625 9.39938 22.2775 9.61854 23.7975 10.0569C27.4313 7.52438 29.0225 8.06009 29.0225 8.06009C30.0675 10.7387 29.4025 12.7354 29.2125 13.2224C30.4238 14.5861 31.16 16.315 31.16 18.4579C31.16 25.9335 26.7188 27.5894 22.4913 28.0764C23.18 28.6852 23.7738 29.854 23.7738 31.6803C23.7738 34.2858 23.75 36.38 23.75 37.0375C23.75 37.5488 24.1063 38.1576 25.0563 37.9628C28.828 36.6571 32.1055 34.1717 34.4275 30.8562C36.7494 27.5408 37.9989 23.5622 38 19.4806C38 8.71756 29.4975 0 19 0Z"
              fill="url(#paint0_linear_62107_475)"/>
        <path fill-rule="evenodd" clip-rule="evenodd"
              d="M19 0C8.5025 0 0 8.71756 0 19.4806C0 28.1007 5.43875 35.3816 12.9913 37.9628C13.9413 38.1332 14.2975 37.5488 14.2975 37.0375C14.2975 36.5748 14.2738 35.0407 14.2738 33.4092C9.5 34.3102 8.265 32.216 7.885 31.1202C7.67125 30.5602 6.745 28.8313 5.9375 28.3686C5.2725 28.0033 4.3225 27.1024 5.91375 27.078C7.41 27.0537 8.47875 28.4904 8.835 29.0748C10.545 32.0212 13.2763 31.1933 14.3688 30.6819C14.535 29.4157 15.0338 28.5634 15.58 28.0764C11.3525 27.5894 6.935 25.9092 6.935 18.4579C6.935 16.3393 7.67125 14.5861 8.8825 13.2224C8.6925 12.7354 8.0275 10.7387 9.0725 8.06009C9.0725 8.06009 10.6637 7.54873 14.2975 10.0569C15.8175 9.61854 17.4325 9.39938 19.0475 9.39938C20.6625 9.39938 22.2775 9.61854 23.7975 10.0569C27.4313 7.52438 29.0225 8.06009 29.0225 8.06009C30.0675 10.7387 29.4025 12.7354 29.2125 13.2224C30.4238 14.5861 31.16 16.315 31.16 18.4579C31.16 25.9335 26.7188 27.5894 22.4913 28.0764C23.18 28.6852 23.7738 29.854 23.7738 31.6803C23.7738 34.2858 23.75 36.38 23.75 37.0375C23.75 37.5488 24.1063 38.1576 25.0563 37.9628C28.828 36.6571 32.1055 34.1717 34.4275 30.8562C36.7494 27.5408 37.9989 23.5622 38 19.4806C38 8.71756 29.4975 0 19 0Z"
              fill="url(#paint1_linear_62107_475)"/>
        <defs>
            <linearGradient id="paint0_linear_62107_475" x1="0" y1="19" x2="38" y2="19" gradientUnits="userSpaceOnUse">
                <stop stop-color="#00F5A0"/>
                <stop offset="1" stop-color="#00D9F5"/>
            </linearGradient>
            <linearGradient id="paint1_linear_62107_475" x1="19" y1="0" x2="19" y2="38" gradientUnits="userSpaceOnUse">
                <stop stop-color="#13ADC7"/>
                <stop offset="0.67" stop-color="#6978D1"/>
                <stop offset="1" stop-color="#945DD6"/>
            </linearGradient>
        </defs>
    </g>

    <g id="linked">
        <ellipse cx="19" cy="18.9998" rx="19" ry="19" fill="url(#paint0_linear_62107_470)"/>
        <ellipse cx="19" cy="18.9998" rx="19" ry="19" fill="url(#paint1_linear_62107_470)"/>
        <path d="M9.39756 28.9055H13.3731V14.1959H9.39756V28.9055ZM11.3854 7.70239C10.0602 7.70239 9 8.76255 9 10.0877C9 11.4129 10.0602 12.4731 11.3854 12.4731C12.7105 12.4731 13.7707 11.4129 13.7707 10.0877C13.7707 8.76255 12.7105 7.70239 11.3854 7.70239ZM20.1317 16.4487V14.1959H16.1561V28.9055H20.1317V21.3519C20.1317 17.1113 25.565 16.8462 25.565 21.3519V28.9055H29.5405V19.8942C29.5405 12.7381 21.9869 13.0032 20.1317 16.4487Z"
              fill="#1F2626"/>
        <defs>
            <linearGradient id="paint0_linear_62107_470" x1="0" y1="18.9998" x2="38" y2="18.9998"
                            gradientUnits="userSpaceOnUse">
                <stop stop-color="#00F5A0"/>
                <stop offset="1" stop-color="#00D9F5"/>
            </linearGradient>
            <linearGradient id="paint1_linear_62107_470" x1="19" y1="-0.000244141" x2="19" y2="37.9998"
                            gradientUnits="userSpaceOnUse">
                <stop stop-color="#13ADC7"/>
                <stop offset="0.67" stop-color="#6978D1"/>
                <stop offset="1" stop-color="#945DD6"/>
            </linearGradient>
        </defs>
    </g>
    <g id="tg">
        <path d="M34.9156 0.340724L1.24935 12.5805C-0.10772 13.1505 -0.563749 14.292 0.923602 14.9115L9.55466 17.4992L30.4427 5.33153C31.5826 4.56763 32.7442 4.77133 31.7454 5.61163L13.8104 20.9221L13.2458 27.4014C13.7669 28.4018 14.7223 28.4065 15.3303 27.9092L20.2917 23.4826L28.7925 29.4824C30.7684 30.5841 31.8431 29.8731 32.2665 27.8538L37.836 2.96912C38.4222 0.483523 37.4343 -0.611576 34.9156 0.340724Z"
              fill="url(#paint0_linear_62101_28)"/>
        <path d="M34.9156 0.340724L1.24935 12.5805C-0.10772 13.1505 -0.563749 14.292 0.923602 14.9115L9.55466 17.4992L30.4427 5.33153C31.5826 4.56763 32.7442 4.77133 31.7454 5.61163L13.8104 20.9221L13.2458 27.4014C13.7669 28.4018 14.7223 28.4065 15.3303 27.9092L20.2917 23.4826L28.7925 29.4824C30.7684 30.5841 31.8431 29.8731 32.2665 27.8538L37.836 2.96912C38.4222 0.483523 37.4343 -0.611576 34.9156 0.340724Z"
              fill="url(#paint1_linear_62101_28)"/>
        <defs>
            <linearGradient id="paint0_linear_62101_28" x1="19" y1="-0.000244141" x2="19" y2="29.9998"
                            gradientUnits="userSpaceOnUse">
                <stop stop-color="white"/>
                <stop offset="1" stop-color="#999999"/>
            </linearGradient>
            <linearGradient id="paint1_linear_62101_28" x1="19" y1="-0.000244141" x2="19" y2="29.9998"
                            gradientUnits="userSpaceOnUse">
                <stop stop-color="#13ADC7"/>
                <stop offset="0.67" stop-color="#6978D1"/>
                <stop offset="1" stop-color="#945DD6"/>
            </linearGradient>
        </defs>
    </g>

    <g id="gmail">
        <circle cx="19" cy="19" r="19" fill="url(#paint0_linear_62107_474)"/>
        <circle cx="19" cy="19" r="19" fill="url(#paint1_linear_62107_474)"/>
        <path d="M30.875 11.5781V26.4218C30.875 27.2642 30.233 27.9062 29.3906 27.9062H27.9063V14.4347L19 20.8324L10.0938 14.4347V27.9062H8.60938C7.76699 27.9062 7.125 27.2642 7.125 26.4218V11.5781C7.125 11.1565 7.28383 10.7854 7.55027 10.5227C7.68904 10.3838 7.85431 10.2743 8.03625 10.2006C8.2182 10.1269 8.4131 10.0906 8.60938 10.0937H9.10441L19 17.2684L28.8956 10.0937H29.3906C29.8122 10.0937 30.1833 10.2525 30.4497 10.5227C30.7162 10.7854 30.875 11.1565 30.875 11.5781Z"
              fill="#1F2626"/>
        <defs>
            <linearGradient id="paint0_linear_62107_474" x1="0" y1="19" x2="38" y2="19" gradientUnits="userSpaceOnUse">
                <stop stop-color="#00F5A0"/>
                <stop offset="1" stop-color="#00D9F5"/>
            </linearGradient>
            <linearGradient id="paint1_linear_62107_474" x1="19" y1="0" x2="19" y2="38" gradientUnits="userSpaceOnUse">
                <stop stop-color="#13ADC7"/>
                <stop offset="0.67" stop-color="#6978D1"/>
                <stop offset="1" stop-color="#945DD6"/>
            </linearGradient>
        </defs>
    </g>


    <!-- Tech stack -->

    <g id="html5">
        <path d="M21.1202 98.176L13.0793 7.99486H101.432L93.3803 98.1617L57.2019 108.192L21.1202 98.176Z"
              fill="#E44F26"/>
        <path d="M57.2556 100.527L86.4917 92.4218L93.3696 15.3701H57.2556V100.527Z" fill="#F1662A"/>
        <path d="M57.2556 48.8145H42.6197L41.6105 37.4886H57.2556V26.4276H29.5225L29.7873 29.3977L32.5033 59.8756H57.2556V48.8145ZM57.2556 77.5389L57.2055 77.5532L44.8884 74.2288L44.1012 65.4079H32.9972L34.5466 82.7706L57.2055 89.0616L57.2556 89.0473V77.5389Z"
              fill="#EBEBEB"/>
        <path d="M57.2162 48.8145V59.8756H70.8359L69.5548 74.2217L57.2162 77.5497V89.058L79.893 82.7706L80.0576 80.9027L82.6556 51.7846L82.9275 48.8145H57.2162ZM57.2162 26.4276V37.4886H83.9331L84.1549 35.0052L84.6595 29.3977L84.9243 26.4276H57.2162Z"
              fill="white"/>
    </g>

    <g id="css3">
        <path d="M21.8285 97.3191L13.7913 7.88947H102.137L94.0886 97.3049L57.9103 107.252L21.8285 97.3191Z"
              fill="#1572B6"/>
        <path d="M57.964 99.6506L87.2001 91.6129L94.0779 15.2032H57.964V99.6506Z" fill="#33A9DC"/>
        <path d="M57.964 47.6024H72.5999L73.6091 36.371H57.964V25.4021H85.6972L85.4324 28.3439L82.7163 58.5713H57.964V47.6024Z"
              fill="white"/>
        <path d="M58.0319 76.0875L57.9818 76.1017L45.6647 72.8014L44.8774 64.054H33.7734L35.3229 81.2756L57.9782 87.5141L58.0319 87.5V76.0875Z"
              fill="#EBEBEB"/>
        <path d="M71.6587 58.1064L70.3276 72.7943L57.9926 76.0946V87.507L80.6658 81.2756L80.834 79.4232L82.7556 58.1064H71.6587Z"
              fill="white"/>
        <path d="M58.0033 25.4021V36.371H31.2864L31.0645 33.9046L30.56 28.3439L30.2952 25.4021H58.0033ZM57.9639 47.6024V58.5713H45.8007L45.5788 56.105L45.0778 50.5443L44.813 47.6024H57.9639Z"
              fill="#EBEBEB"/>
    </g>

    <g id="js">
    <path d="M7.57385 7.99486H107.771V108.192H7.57385V7.99486Z" fill="#F5DE19" />
    <path d="M74.8814 86.274C75.7351 88.0081 77.0614 89.4657 78.7076 90.4787C80.3537 91.4917 82.2526 92.0189 84.1854 91.9995C88.0859 91.9995 90.5801 90.0493 90.5801 87.3475C90.5801 84.1269 88.0179 82.9746 83.7238 81.0959L81.3691 80.0868C74.57 77.1918 70.0611 73.5668 70.0611 65.9017C70.0611 58.8414 75.4289 53.4629 83.849 53.4629C86.5747 53.2661 89.2981 53.8762 91.6794 55.217C94.0607 56.5578 95.9945 58.5701 97.2397 61.0028L89.8787 65.7085C89.3993 64.5023 88.5645 63.4703 87.4851 62.7494C86.4056 62.0285 85.1326 61.6527 83.8347 61.672C83.2684 61.6153 82.6966 61.6772 82.1556 61.8537C81.6146 62.0302 81.1162 62.3175 80.6924 62.6973C80.2686 63.077 79.9285 63.5409 79.6938 64.0593C79.4591 64.5778 79.335 65.1394 79.3294 65.7085C79.3294 68.5319 81.0793 69.677 85.1194 71.434L87.474 72.4432C95.4755 75.8749 99.9987 79.3711 99.9987 87.233C99.9987 95.7104 93.3391 100.355 84.3965 100.355C80.9122 100.577 77.438 99.7862 74.3933 98.0775C71.3486 96.3687 68.8634 93.8154 67.2377 90.7256L74.8814 86.274ZM41.6194 87.0899C43.0973 89.7129 44.4429 91.9315 47.6778 91.9315C50.7696 91.9315 52.7234 90.722 52.7234 86.0163V53.9997H62.1384V86.1416C62.1384 95.8893 56.4128 100.327 48.0786 100.327C45.1326 100.488 42.2069 99.7535 39.6859 98.2206C37.165 96.6878 35.1669 94.428 33.9543 91.7383L41.6194 87.0899Z" fill="black" />
    </g>

    <g id="react">
        <path d="M88.7813 31.5874C87.6338 31.1923 86.4766 30.8262 85.3107 30.4896C85.5066 29.6864 85.6869 28.893 85.8469 28.1135C88.4742 15.3131 86.7566 5.00083 80.89 1.60554C75.2651 -1.64941 66.0661 1.74461 56.7757 9.85958C55.8601 10.6608 54.9648 11.4851 54.0907 12.3316C53.5055 11.7687 52.91 11.2167 52.3044 10.6758C42.5676 1.99909 32.808 -1.65786 26.9476 1.74715C21.3278 5.01224 19.6637 14.7065 22.0291 26.8377C22.2644 28.0392 22.5301 29.2345 22.826 30.4224C21.4445 30.8164 20.1114 31.2357 18.8357 31.6821C7.41999 35.6768 0.129761 41.9369 0.129761 48.4303C0.129761 55.1367 7.95615 61.8635 19.8461 65.9423C20.81 66.2716 21.782 66.5768 22.7611 66.8575C22.4431 68.1369 22.1608 69.425 21.9145 70.7203C19.6595 82.641 21.4205 92.1061 27.0251 95.3505C32.8139 98.701 42.5297 95.2575 51.9898 86.9574C52.7569 86.2826 53.5071 85.5887 54.2398 84.8764C55.1864 85.7931 56.1583 86.6831 57.1543 87.5454C66.3184 95.4596 75.3688 98.6553 80.9679 95.4021C86.7512 92.0419 88.6309 81.8738 86.1906 69.5029C85.9983 68.5337 85.7828 67.5693 85.5441 66.6106C86.2264 66.4077 86.8961 66.1989 87.5489 65.9816C99.9097 61.8715 107.952 55.2263 107.952 48.4303C107.952 41.9132 100.427 35.6108 88.7813 31.5874ZM86.1004 61.5938C85.5108 61.7895 84.906 61.9785 84.2894 62.1623C82.9247 57.8265 81.0833 53.2163 78.8296 48.4527C80.9801 43.8027 82.7508 39.2513 84.0771 34.9438C85.1802 35.2642 86.2504 35.602 87.2823 35.9583C97.2601 39.406 103.346 44.5028 103.346 48.4303C103.346 52.6135 96.7732 58.0442 86.1004 61.5938ZM81.6721 70.4007C82.7512 75.8707 82.9049 80.8166 82.1902 84.6832C81.5483 88.1575 80.257 90.4736 78.6599 91.4015C75.2622 93.3756 67.9955 90.8097 60.1586 84.0411C59.2322 83.2393 58.3281 82.4119 57.4475 81.5597C60.4859 78.2249 63.5222 74.3481 66.4856 70.0423C71.6982 69.5781 76.6226 68.8189 81.0884 67.7828C81.3035 68.6507 81.4982 69.5236 81.6721 70.4007ZM36.8888 91.0603C33.569 92.2368 30.9249 92.2706 29.3265 91.3457C25.9254 89.3771 24.5115 81.777 26.4401 71.5827C26.6694 70.378 26.9319 69.18 27.2273 67.99C31.6438 68.9707 36.5325 69.6758 41.7572 70.101C44.7409 74.3143 47.8648 78.1868 51.0131 81.5779C50.344 82.2277 49.6591 82.8608 48.959 83.4767C44.7754 87.1468 40.5834 89.7508 36.8888 91.0603ZM21.3362 61.568C16.0786 59.7642 11.7367 57.4203 8.76061 54.8624C6.08611 52.564 4.73622 50.2818 4.73622 48.4303C4.73622 44.4897 10.5894 39.4635 20.3519 36.0475C21.5367 35.6333 22.7767 35.2422 24.0634 34.8753C25.4129 39.2801 27.1827 43.8856 29.3185 48.5427C27.1549 53.2687 25.3598 57.9478 23.9973 62.4046C23.1036 62.1476 22.2163 61.8687 21.3362 61.568ZM26.5496 25.9496C24.5233 15.5562 25.869 7.71596 29.2557 5.7482C32.8627 3.65235 40.839 6.64056 49.2462 14.1329C49.7945 14.6225 50.3338 15.1221 50.864 15.6314C47.7313 19.0077 44.636 22.8515 41.6789 27.0398C36.6079 27.5115 31.7537 28.269 27.2909 29.284C27.0159 28.1791 26.7688 27.0674 26.5496 25.95V25.9496ZM73.0594 37.4763C72.0053 35.6489 70.9121 33.8444 69.7805 32.0642C73.2207 32.5009 76.5169 33.0804 79.6122 33.7889C78.683 36.7784 77.5248 39.9036 76.1614 43.1078C75.1649 41.2101 74.1307 39.3326 73.0594 37.4763ZM54.0928 18.9354C56.2172 21.2455 58.345 23.8246 60.4379 26.623C56.1924 26.4217 51.9398 26.4209 47.6942 26.6204C49.7891 23.8478 51.9351 21.2722 54.0928 18.9354ZM35.0044 37.508C33.9466 39.3493 32.9317 41.2152 31.9605 43.104C30.6195 39.9112 29.4718 36.7716 28.5347 33.7399C31.611 33.0492 34.8915 32.4844 38.3098 32.0558C37.1657 33.8468 36.0636 35.6646 35.0044 37.5076V37.508ZM38.408 65.1336C34.8764 64.738 31.5465 64.2024 28.4711 63.5303C29.4229 60.4444 30.5959 57.2381 31.966 53.9768C32.941 55.867 33.9601 57.734 35.0225 59.5761C36.1151 61.4699 37.2464 63.3248 38.408 65.1336ZM54.22 78.2506C52.0366 75.8868 49.8591 73.2714 47.7325 70.4586C49.7971 70.5398 51.9018 70.5812 54.041 70.5812C56.2387 70.5812 58.4111 70.5318 60.5495 70.4362C58.4499 73.2997 56.3301 75.9189 54.22 78.2506ZM76.2048 53.8102C77.6461 57.1074 78.8608 60.2969 79.8253 63.3299C76.6993 64.046 73.3239 64.6226 69.7675 65.0508C70.9071 63.2375 72.0107 61.4017 73.0775 59.5444C74.1622 57.6566 75.2049 55.7447 76.2048 53.8102ZM69.0877 57.2347C67.4544 60.0823 65.7293 62.8758 63.9151 65.6109C60.6289 65.8445 57.3354 65.9605 54.041 65.9588C50.6854 65.9588 47.4217 65.854 44.2788 65.6494C42.4173 62.9206 40.6593 60.1222 39.0086 57.26H39.009C37.3661 54.4131 35.8314 51.5045 34.4084 48.5406C35.8278 45.576 37.3578 42.6661 38.9951 39.8169L38.9947 39.8173C40.6314 36.9675 42.3754 34.181 44.2228 31.464C47.4293 31.2205 50.7174 31.0937 54.0406 31.0937H54.041C57.3793 31.0937 60.6716 31.2217 63.8772 31.4669C65.706 34.1799 67.4389 36.9568 69.0725 39.7924C70.7153 42.6353 72.2655 45.531 73.7207 48.4751C72.2804 51.4492 70.7351 54.3709 69.0877 57.2347ZM78.5895 5.61039C82.1999 7.70032 83.6041 16.1281 81.3356 27.1801C81.1907 27.8852 81.0282 28.6034 80.8513 29.3318C76.3775 28.2953 71.52 27.5246 66.4342 27.0457C63.4716 22.8113 60.4017 18.9616 57.3199 15.6289C58.1275 14.8475 58.9544 14.0863 59.7998 13.3462C67.7601 6.39369 75.1999 3.64855 78.5895 5.61039ZM54.041 38.7669C59.3584 38.7669 63.6692 43.0934 63.6692 48.4303C63.6692 53.7671 59.3584 58.0937 54.041 58.0937C48.7236 58.0937 44.4128 53.7671 44.4128 48.4303C44.4128 43.0934 48.7236 38.7669 54.041 38.7669Z"
              fill="#00D8FF"/>
    </g>

    <g id="redux">
        <path d="M69.5257 66.7156C73.2204 66.3331 76.0233 63.1481 75.8958 59.3256C75.7687 55.5035 72.5833 52.4455 68.7612 52.4455H68.5066C64.5565 52.573 61.499 55.8856 61.6265 59.8352C61.754 61.7464 62.5182 63.4027 63.6649 64.5494C59.3332 73.0861 52.7081 79.3291 42.7705 84.5529C36.0179 88.1204 29.0108 89.3946 22.0036 88.5029C16.2702 87.7383 11.811 85.1903 9.00769 80.9853C4.93097 74.7424 4.54887 67.9894 7.9889 61.2369C10.4097 56.3952 14.2315 52.8276 16.6523 51.0439C16.1427 49.3876 15.3782 46.5847 14.9961 44.5463C-3.47786 57.9243 -1.5666 76.0165 4.03928 84.5529C8.2435 90.9237 16.7798 94.8733 26.2078 94.8733C28.7558 94.8733 31.3037 94.6183 33.8521 93.9817C50.1601 90.7962 62.5186 81.1128 69.5257 66.7156ZM91.9493 50.9168C82.2663 39.5771 67.997 33.3341 51.6889 33.3341H49.6505C48.5039 31.0408 46.083 29.5116 43.4076 29.5116H43.1526C39.2034 29.6391 36.1458 32.9517 36.2729 36.9017C36.4004 40.7238 39.5855 43.7817 43.4076 43.7817H43.6622C46.4651 43.6542 48.886 41.8705 49.9051 39.4496H52.1985C61.8815 39.4496 71.0545 42.2526 79.3362 47.7313C85.7063 51.936 90.293 57.4147 92.841 64.0398C95.0068 69.3911 94.8793 74.6149 92.586 79.0745C89.0188 85.827 83.0309 89.522 75.1316 89.522C70.0353 89.522 65.194 87.9929 62.6457 86.8462C61.2444 88.1204 58.6961 90.1587 56.9123 91.4333C62.3911 93.9813 67.997 95.3829 73.3479 95.3829C85.5788 95.3829 94.6247 88.63 98.0648 81.8774C101.759 74.4874 101.504 61.7464 91.9493 50.9168ZM27.227 68.8811C27.3545 72.7036 30.5395 75.7612 34.3617 75.7612H34.6167C38.5663 75.634 41.6238 72.3211 41.4963 68.3715C41.3692 64.549 38.1838 61.4915 34.3617 61.4915H34.1071C33.8521 61.4915 33.4696 61.4915 33.2154 61.6186C27.9916 52.9547 25.8257 43.5267 26.5903 33.3338C27.0995 25.6891 29.6479 19.0637 34.1071 13.5849C37.8017 8.87068 44.9363 6.57733 49.778 6.45022C63.2828 6.19523 69.0158 23.0133 69.3982 29.7662C71.0545 30.1483 73.8575 31.0404 75.7687 31.6775C74.2395 11.0373 61.499 0.334747 49.2685 0.334747C37.8017 0.334747 27.227 8.61647 23.0224 20.8478C17.1619 37.1563 20.984 52.8276 28.1187 65.1865C27.482 66.0782 27.0995 67.4798 27.227 68.8815V68.8811Z"
              fill="#764ABC"/>
    </g>
    <g id="tailwind">
        <path d="M28.1585 22.1632C31.8046 7.57893 40.9197 0.286797 55.504 0.286797C77.3804 0.286797 80.115 16.6941 91.0532 19.4286C98.3453 21.2517 104.726 18.5171 110.195 11.225C106.549 25.8093 97.4338 33.1014 82.8495 33.1014C60.9731 33.1014 58.2385 16.6941 47.3003 13.9595C40.0082 12.1365 33.6276 14.8711 28.1585 22.1632ZM0.812988 54.9778C4.45906 40.3935 13.5742 33.1014 28.1585 33.1014C50.0349 33.1014 52.7694 49.5087 63.7076 52.2433C70.9998 54.0663 77.3804 51.3317 82.8495 44.0396C79.2034 58.6239 70.0883 65.916 55.504 65.916C33.6276 65.916 30.893 49.5087 19.9548 46.7742C12.6627 44.9511 6.28209 47.6857 0.812988 54.9778Z"
              fill="#44A8B3"/>
    </g>
    <g id="sass">
        <g clip-path="url(#clip0_62101_283)">
            <path d="M96.3195 48.424C92.4356 48.4438 89.0597 49.3713 86.2333 50.7425C85.1958 48.7059 84.1587 46.8915 83.976 45.5606C83.7724 44.0083 83.5286 43.0605 83.7723 41.2055C84.0166 39.3505 85.1147 36.709 85.0942 36.5075C85.0741 36.306 84.85 35.3582 82.6132 35.3383C80.3764 35.3179 78.4445 35.7616 78.2207 36.3462C77.997 36.9308 77.5701 38.2617 77.2853 39.6324C76.8989 41.6491 72.8117 48.8468 70.4733 52.6174C69.7206 51.1459 69.07 49.8552 68.9273 48.827C68.7241 47.2746 68.4799 46.3268 68.7241 44.4718C68.9683 42.6168 70.0665 39.9757 70.046 39.7738C70.0255 39.5723 69.8017 38.6245 67.5649 38.6046C65.3277 38.5843 63.3958 39.0279 63.1725 39.6125C62.9488 40.1976 62.7046 41.5683 62.2371 42.8992C61.7691 44.2301 56.3396 56.2473 54.9162 59.352C54.3409 60.6086 53.7375 61.8523 53.1063 63.0823C53.1063 63.0823 53.0858 63.1428 53.0248 63.2436C52.8265 63.6292 52.6233 64.0124 52.4151 64.3929V64.4128C52.1098 64.9576 51.7845 65.4613 51.6218 65.4613C51.4997 65.4613 51.276 64.0098 51.6624 62.0337C52.4757 57.8602 54.4077 51.3677 54.3876 51.1459C54.3876 51.0248 54.7535 49.8958 53.1268 49.3108C51.5403 48.7262 50.9712 49.6939 50.8286 49.6939C50.6864 49.6939 50.5843 50.0368 50.5843 50.0368C50.5843 50.0368 52.3541 42.7379 47.2089 42.7379C43.9961 42.7379 39.5627 46.2261 37.3665 49.3713C34.8698 50.7184 32.3753 52.0694 29.8829 53.4242C28.6836 54.0897 27.4429 54.7551 26.2837 55.38C26.2022 55.2995 26.1211 55.1984 26.0395 55.1179C19.8167 48.5247 8.30705 43.8669 8.79505 35.0157C8.97822 31.7896 10.0964 23.321 30.8999 13.0382C48.0222 4.67037 61.6475 6.9889 64.0063 12.1306C67.3818 19.4701 56.7059 33.1002 39.0136 35.0758C32.2623 35.8221 28.7237 33.2411 27.8293 32.2734C26.8938 31.2651 26.7512 31.2045 26.4054 31.4065C25.8363 31.7091 26.2022 32.6163 26.4054 33.1404C26.9344 34.5111 29.1101 36.9308 32.7908 38.1208C36.0446 39.1689 43.9551 39.7539 53.5333 36.0842C64.2501 31.9707 72.6286 20.5385 70.1681 10.9613C67.7071 1.24275 51.4387 -1.96306 36.0446 3.46052C26.8938 6.68708 16.9698 11.7678 9.83211 18.3813C1.35206 26.2445 0.00972673 33.0798 0.558782 35.9432C2.53172 46.105 16.665 52.7185 22.3182 57.618C22.0334 57.7793 21.7687 57.9207 21.5454 58.0418C18.7186 59.4328 7.94073 65.0177 5.2565 70.9256C2.20639 77.6195 5.74494 82.4187 8.08333 83.0634C15.3432 85.0598 22.8062 81.4709 26.8123 75.5427C30.8183 69.615 30.3303 61.9126 28.4799 58.3843C28.4594 58.3441 28.4394 58.3034 28.3984 58.2632C29.1306 57.8399 29.8829 57.3962 30.6151 56.9729C31.9609 56.1841 33.3237 55.4244 34.7027 54.6942C34.0111 56.5695 33.5026 58.8076 33.2588 62.0337C32.9535 65.8246 34.5191 70.744 36.5732 72.6794C37.4886 73.5269 38.5662 73.5468 39.2578 73.5468C41.6573 73.5468 42.7353 71.5707 43.9351 69.2319C45.3991 66.3689 46.7209 63.0421 46.7209 63.0421C46.7209 63.0421 45.0737 72.0347 49.5477 72.0347C51.1744 72.0347 52.8216 69.9375 53.5538 68.8691V68.889C53.5538 68.889 53.5943 68.8284 53.6759 68.6875C53.8386 68.4254 53.9402 68.2637 53.9402 68.2637V68.2239C54.5908 67.0945 56.0553 64.5338 58.231 60.2795C61.0373 54.7954 63.7421 47.9401 63.7421 47.9401C63.7421 47.9401 63.9863 49.6135 64.8197 52.396C65.3081 54.0291 66.3242 55.8236 67.138 57.5575C66.4873 58.4651 66.0805 58.9689 66.0805 58.9689L66.101 58.9892C65.572 59.6745 65.0028 60.4204 64.3722 61.1469C62.1555 63.7676 59.5123 66.7724 59.146 67.6389C58.7186 68.6671 58.8206 69.4135 59.6344 70.0184C60.224 70.462 61.2811 70.5221 62.3592 70.462C64.3522 70.3206 65.7551 69.8368 66.4464 69.5345C67.5244 69.1514 68.7852 68.5664 69.9644 67.6994C72.1406 66.1065 73.462 63.8282 73.3403 60.8243C73.2792 59.1708 72.7302 57.5173 72.059 55.9646C72.2627 55.6826 72.4454 55.4003 72.6491 55.1179C76.0856 50.1376 78.7497 44.6733 78.7497 44.6733C78.7497 44.6733 78.9939 46.3467 79.8273 49.1296C80.2342 50.541 81.0681 52.0734 81.7999 53.5652C78.5666 56.1665 76.5736 59.1907 75.8618 61.1667C74.581 64.8365 75.5771 66.4896 77.4685 66.8727C78.3223 67.0543 79.5426 66.6509 80.4375 66.2678C81.5761 65.905 82.9185 65.2802 84.1997 64.3522C86.3759 62.7597 88.4701 60.5415 88.348 57.5376C88.2869 56.1665 87.921 54.8152 87.4125 53.5046C90.1578 52.3761 93.6964 51.7508 98.2105 52.2749C107.891 53.4039 109.802 59.3922 109.436 61.9131C109.07 64.4331 107.036 65.8042 106.366 66.2276C105.694 66.6513 105.471 66.7923 105.532 67.0945C105.613 67.5382 105.938 67.5183 106.508 67.4374C107.301 67.2964 111.592 65.4008 111.775 60.7633C112.08 54.8356 106.386 48.3634 96.3195 48.424ZM21.6471 73.3855C18.4338 76.8533 13.9603 78.1639 12.0283 77.0553C9.95422 75.8653 10.7676 70.744 14.7126 67.0746C17.112 64.8365 20.2031 62.7593 22.2572 61.4893C22.7247 61.207 23.4163 60.804 24.2502 60.2998C24.3923 60.2189 24.4739 60.1787 24.4739 60.1787L24.9619 59.876C26.4054 65.1184 25.0229 69.736 21.6471 73.3855ZM45.0332 57.618C43.9146 60.3201 41.5762 67.2359 40.1527 66.8528C38.9325 66.5302 38.1798 61.2878 39.9085 56.106C40.7829 53.5046 42.6333 50.3996 43.7113 49.1902C45.4601 47.2543 47.3921 46.6087 47.8596 47.3957C48.4496 48.424 45.7244 55.9243 45.0332 57.618ZM64.3317 66.7719C63.8637 67.0141 63.4167 67.1754 63.2131 67.0543C63.0709 66.9734 63.4167 66.6509 63.4167 66.6509C63.4167 66.6509 65.8367 64.0703 66.7922 62.9007C67.3417 62.2153 67.9919 61.4089 68.6836 60.5013V60.7633C68.6836 63.8485 65.6736 65.9253 64.3312 66.7719H64.3317ZM79.2172 63.4049C78.8714 63.1627 78.9325 62.3563 80.0916 59.8358C80.5391 58.8478 81.5962 57.1947 83.4065 55.6018C83.6097 56.2469 83.7523 56.8722 83.7318 57.4568C83.7113 61.3484 80.9054 62.7999 79.2172 63.4049Z"
                  fill="#CD6799"/>
        </g>
        <defs>
            <clipPath id="clip0_62101_283">
                <rect width="111.648" height="83.0206" fill="white" transform="translate(0.251099 0.637817)"/>
            </clipPath>
        </defs>
    </g>
    <g id="git1">
    <path d="M98.45 45.684L54.7029 1.93928C52.185 -0.580133 48.0989 -0.580133 45.5779 1.93928L36.4936 11.0236L48.0175 22.5474C50.6954 21.6425 53.7663 22.2496 55.9009 24.3843C58.0458 26.5326 58.6485 29.6297 57.7217 32.3163L68.8276 43.4225C71.5145 42.4969 74.6147 43.0957 76.7608 45.2453C79.76 48.2433 79.76 53.1025 76.7608 56.1026C73.7607 59.103 68.9015 59.103 65.8999 56.1026C63.6439 53.8442 63.0866 50.531 64.2287 47.7517L53.8716 37.3946L53.8704 64.6503C54.6212 65.0215 55.3069 65.5119 55.9009 66.1023C58.9002 69.1004 58.9002 73.96 55.9009 76.9624C52.9009 79.9613 48.0394 79.9613 45.0436 76.9624C42.0444 73.96 42.0444 69.1008 45.0436 66.1027C45.7624 65.3836 46.6166 64.8141 47.5568 64.4272V36.9175C46.6152 36.5331 45.7605 35.9633 45.0436 35.242C42.7712 32.9726 42.2248 29.6383 43.3892 26.8481L32.0293 15.487L2.03277 45.4817C-0.487813 48.0034 -0.487813 52.09 2.03277 54.6098L45.7806 98.3553C48.2993 100.875 52.3846 100.875 54.9064 98.3553L98.4496 54.8129C100.969 52.2923 100.969 48.2034 98.4496 45.684" fill="#DE4C36" />
    </g>
    <g id="GSAP">
    <path d="M55.8665 114.637C54.3742 114.376 52.8283 113.668 51.9516 112.884C51.3564 112.26 51.0168 111.435 50.9997 110.572C50.9997 109.696 51.447 108.465 52.1556 107.237C52.585 106.547 52.9214 105.802 53.1611 105.019C53.3114 104.478 53.6263 103.601 53.8697 103.043L54.2991 102.02L54.41 95.1813C54.4673 91.3989 54.5782 87.8956 54.6712 87.3516C54.9146 85.7843 55.3225 84.2563 55.8629 82.7676L56.2744 81.7799L55.6768 81.4257C55.1364 81.0893 54.6891 80.6241 52.9178 78.5164C50.7385 75.9435 47.8686 74.5264 43.8034 74.0433C42.4794 73.9145 41.1374 73.8178 39.7955 73.7642C33.8302 73.485 30.4199 72.2362 27.346 69.2159C25.0522 66.9615 23.8606 64.3313 23.3775 60.4558C22.7262 55.2169 21.9998 52.5331 20.6578 50.3538C20.3271 49.8156 19.9461 49.3099 19.5199 48.8437L18.9795 48.3033L17.7879 49.0691C17.1366 49.4985 16.2205 50.0389 15.7732 50.2822C14.281 51.1017 12.8639 52.0142 11.5041 53.0019C8.16897 55.4245 4.53324 58.4626 2.54003 60.4558C1.64541 61.3504 1.18021 61.7405 0.972656 61.7047C-0.387165 61.5007 0.654171 55.6106 2.87283 51.1733C5.70698 45.4513 10.4771 40.1766 15.9951 36.616C20.5254 33.6888 27.8506 29.663 31.2394 28.246C37.2584 25.7303 45.0487 23.0071 50.3806 21.5542C51.5007 21.2357 52.1878 20.9566 52.653 20.6417C53.6979 19.9153 54.7213 19.561 55.8951 19.5431C56.8827 19.5252 56.9758 19.5073 57.9277 18.8704C59.0477 18.1439 59.3805 18.1046 60.5006 18.4982L61.227 18.7594L62.1216 18.1439L63.0162 17.5463L64.3009 17.5642C65.2886 17.5821 65.7359 17.5463 66.1653 17.3603C66.7056 17.1169 66.7235 17.0811 66.8738 16.1865C67.2102 14.247 67.246 13.2772 67.042 12.1035C66.7808 10.5576 66.745 4.55647 67.0062 3.37916C67.2854 2.11238 67.4714 1.85115 68.4233 1.38595C69.8404 0.6953 70.9032 0.491327 73.3437 0.491327C76.3246 0.491327 77.8347 0.902852 78.9548 1.98355C79.9603 2.95332 80.1285 5.22565 79.606 10.5576C79.2876 13.6315 79.2518 14.4903 79.3448 16.5014C79.3806 17.7861 79.4736 18.9992 79.513 19.1674C79.5882 19.4859 79.6633 19.5038 80.744 19.5217C81.8068 19.5395 81.9929 19.5968 82.9984 20.1193C83.9682 20.6238 84.6946 21.2393 84.8449 21.6866C84.8628 21.7797 85.031 21.7797 85.328 21.6866C85.9042 21.5184 86.4087 21.7045 86.8203 22.2091C87.0636 22.5276 87.2103 22.5812 87.7721 22.5812C88.5379 22.5812 88.817 22.7673 89.4504 23.7013C89.7467 24.1205 90.1528 24.4499 90.6242 24.6532C91.6691 25.1756 93.0862 26.6285 93.6265 27.7843C94.4639 29.4984 94.6321 31.4916 94.1096 33.2809C93.9235 33.9536 93.9235 33.9715 94.3136 34.6228C95.133 36.022 95.4336 37.7361 95.0973 39.1889L94.9112 40.0478L95.4694 40.606C98.2463 43.3829 97.8348 47.9133 94.446 51.9569C94.0672 52.4188 93.7475 52.9261 93.4941 53.4671C92.8428 55.199 92.0949 56.4121 91.1287 57.4177L90.1411 58.4232H89.1355C88.13 58.4232 86.7129 58.0869 85.8541 57.6396C85.4998 57.4535 85.4819 57.4535 85.5571 57.6753C85.7825 58.4948 86.3407 61.83 86.5268 63.6764C86.8238 66.5106 86.7308 70.6294 86.3407 72.4008C86.0557 73.7127 85.5781 74.9752 84.9237 76.1474C84.5515 76.745 84.5336 76.8739 84.6052 77.6003C84.7161 78.6237 84.4763 80.3414 84.0648 81.4758C83.5603 82.7998 83.3742 83.4153 83.2633 84.0845C83.1702 84.6606 83.1702 84.6606 83.5817 84.6606C84.1221 84.6606 84.4191 84.9791 84.4191 85.6125C84.4191 85.8916 84.1758 87.4017 83.8787 88.9476C83.0593 93.2919 83.002 93.775 83.002 97.9869C82.9841 102.331 82.9841 102.292 83.9718 102.943L86.1904 104.378C88.0992 105.645 90.1432 106.695 92.2846 107.509C95.3979 108.74 95.8273 109.055 95.8273 110.1C95.8273 110.565 95.7342 110.733 95.3442 111.106C94.1525 112.261 91.8015 112.523 87.0672 112.018C84.6071 111.788 82.1377 111.669 79.6669 111.664C73.1433 111.571 72.1915 111.345 71.3362 109.724C70.8531 108.794 70.9461 107.581 71.6153 105.588C71.9123 104.711 72.1736 103.816 72.399 102.904C72.8463 100.742 72.5493 98.1694 71.5044 95.2636L70.6098 92.7838C69.733 90.2681 69.2499 85.6626 69.7724 84.6213C69.8654 84.4173 70.0336 84.3779 70.4809 84.3958L71.0392 84.4531L71.5044 83.4833C71.8587 82.7175 72.2487 82.2165 73.3115 81.1537L74.6713 79.7939L74.5962 78.9172C74.5389 78.0798 73.4403 74.0147 73.29 74.0325C73.2328 74.0325 72.9358 74.4441 72.5994 74.963C71.7799 76.1939 69.9728 78.0941 68.9458 78.7848C68.4985 79.0818 68.1263 79.4361 68.1263 79.5506C68.1084 80.0551 67.679 81.0428 67.1565 81.7299C66.652 82.4026 66.6162 82.5135 66.6913 83.1076C66.8202 83.9843 66.541 86.797 66.2082 88.2713C65.9066 89.366 65.4941 90.4272 64.9772 91.4382C63.6926 94.1042 62.7228 96.4875 62.4795 97.5896C62.3037 98.6508 62.1914 99.7215 62.1431 100.796C62.0858 102.063 61.957 103.294 61.864 103.555C61.7351 103.909 61.7351 104.188 61.8461 104.729C61.9391 105.119 61.9964 105.995 61.9749 106.686C61.957 107.638 62.0322 108.253 62.3113 109.37C62.7944 111.27 62.8874 112.465 62.6656 113.174C62.5153 113.621 62.3685 113.789 61.864 114.033C60.7439 114.609 57.577 114.927 55.8629 114.63L55.8665 114.637ZM60.3932 113.109C61.0445 112.923 61.6063 112.365 61.6063 111.861C61.6063 111.635 61.4202 110.984 61.1948 110.408C60.7475 109.309 59.9817 106.4 59.9817 105.917C59.9817 105.673 59.9996 105.656 60.3717 105.859L60.7833 106.085V105.562C60.7236 105.081 60.6169 104.606 60.4648 104.145C60.1105 103.083 60.0747 103.065 57.8167 102.932L56.2887 102.857L55.7305 103.398C55.4235 103.713 55.1545 104.064 54.9289 104.442C54.6856 104.926 54.5925 105.656 54.7428 105.82C54.7786 105.877 55.1543 105.82 55.5623 105.727C55.8045 105.655 56.0543 105.612 56.3066 105.598C56.3066 105.616 55.8951 105.953 55.3762 106.307C53.1397 107.985 52.356 109.009 52.356 110.315C52.356 111.675 53.6406 112.737 55.6553 113.056C57.033 113.26 59.7169 113.317 60.3896 113.113L60.3932 113.109ZM90.7172 110.891C91.2755 110.218 91.2003 109.531 90.4918 108.747C90.0802 108.336 89.615 107.982 89.0926 107.702C88.5701 107.423 88.0477 107.105 87.5252 106.772C86.5803 106.16 85.6096 105.588 84.6159 105.058C83.7571 104.593 82.9197 104.106 82.1002 103.587L81.7639 103.326V98.2016C81.7639 93.1523 81.746 93.0772 81.4847 93.1523C80.1786 93.5066 78.0172 93.6748 75.2797 93.6175L72.3167 93.5818L72.7461 94.6267C73.5477 96.602 73.9592 99.2501 73.9592 102.288C73.9592 103.426 73.8841 103.834 73.6049 104.636C73.4547 105.026 73.3258 105.419 73.1934 105.809C73.1362 105.978 73.3437 106.106 74.1059 106.332C74.6642 106.5 75.4836 106.668 75.9524 106.722L76.8113 106.815L76.7182 107.674C76.6252 108.644 76.7361 109.667 76.9794 109.985C77.1297 110.172 77.688 110.247 80.2788 110.358C82.2362 110.451 84.3618 110.655 86.0366 110.898C87.4894 111.123 89.0568 111.31 89.522 111.31C90.3057 111.327 90.3808 111.292 90.7136 110.898L90.7172 110.891ZM60.8799 102.17C60.955 102.113 61.066 101.107 61.1053 99.9157C61.2556 96.5805 61.3845 96.0938 63.0628 92.3293C64.4405 89.2554 65.1705 86.3854 65.1132 84.3529L65.0774 83.1398L64.555 83.6443C63.4743 84.725 64.2186 83.0288 65.5069 81.5187C66.4766 80.3629 66.813 79.7295 66.9597 78.706C67.0349 78.2945 67.1852 78.0905 67.8186 77.6074C70.1884 75.8172 72.0145 73.4039 73.0932 70.6366C73.3545 69.9638 74.0236 67.6736 74.5854 65.548C75.6304 61.6152 76.1886 59.919 76.6932 59.1926C76.8792 58.9135 76.9544 58.8562 76.9186 59.0423C76.6484 60.0418 76.4369 61.0562 76.2852 62.0805C76.1349 62.993 75.8558 64.7822 75.6697 66.0311C75.3155 68.5861 74.9433 70.2251 74.4387 71.4918L74.1024 72.3507L74.997 74.6624C75.9274 77.0277 76.3568 78.7454 76.4319 80.4022L76.4892 81.3326L75.7628 81.4829C74.804 81.6526 73.9484 82.1875 73.3759 82.9752C72.7425 83.8877 72.3883 84.6356 72.5565 84.8002C72.6316 84.8753 73.5441 85.0435 74.589 85.1723C76.2101 85.3584 76.8256 85.3584 78.9691 85.2296C79.8995 85.1938 80.8156 85.1008 81.7281 84.9684C81.9321 84.8932 82.1396 84.4853 82.4724 83.4225C83.2382 80.9819 83.3849 80.1231 83.2919 78.409L83.2167 76.8989L83.6068 76.3944C84.5193 75.2385 85.2278 73.1522 85.5248 70.7081C85.8791 67.7273 85.2278 61.4828 84.0147 56.1151C83.4386 53.5601 83.1953 52.0321 83.1953 50.9156V49.9279L82.2828 50.021C79.0013 50.3753 75.0328 50.2822 72.6101 49.7777C71.2861 49.5164 67.951 48.5288 67.2245 48.2103L66.6484 47.949L66.5732 48.6003C66.516 48.9546 66.4623 49.3089 66.3872 49.681C66.2762 50.0711 66.312 50.1641 67.0027 50.8369C67.8615 51.7136 68.1227 52.1609 68.1227 52.7549C68.1227 53.1271 67.9188 53.4277 66.8738 54.5084C66.1246 55.3079 65.2934 56.0263 64.394 56.6519L63.1809 57.4714L62.6584 59.2785C60.794 65.8951 60.4397 71.9141 61.6707 76.219L61.9678 77.2997L61.3701 78.044C59.1336 80.8567 57.8096 83.0002 57.6056 84.1954C57.4863 84.784 57.3491 85.3687 57.1941 85.9489C56.711 87.7954 56.3352 90.4971 56.1706 93.4243C56.0559 95.8748 55.8949 98.3229 55.6875 100.767L55.5945 101.494L56.5249 101.773C57.0473 101.941 57.831 102.127 58.2783 102.202C59.1157 102.331 60.6652 102.295 60.9049 102.167L60.8799 102.17ZM78.9762 91.9178C80.4291 91.8247 81.7531 91.5993 82.0144 91.3774C82.1253 91.3023 82.2577 90.9122 82.2935 90.5186L82.3865 89.81L81.2307 90.0713C80.3182 90.2573 79.4057 90.3683 78.4896 90.4434C76.2888 90.5365 74.0737 90.4792 71.8909 90.2573C71.1644 90.1464 71.1644 90.1464 71.3863 91.0947C71.5724 91.8033 71.6117 91.839 73.5119 91.9714C74.7787 92.0824 76.55 92.0645 78.9727 91.9142L78.9762 91.9178ZM77.7631 88.6757C79.6633 88.5075 82.0323 88.0995 82.4975 87.8562C82.6478 87.781 82.7766 87.5019 82.8338 87.1834L83.002 86.1958L83.0951 85.7306L82.6299 85.8236C80.5615 86.253 78.9941 86.3819 75.863 86.3819C72.8069 86.3819 72.4527 86.364 71.6511 86.0848C71.343 85.955 71.0151 85.8788 70.6813 85.8594C70.5525 85.9346 70.531 86.9974 70.6455 87.7417C70.7207 88.189 70.7958 88.2641 71.2432 88.393C72.6602 88.783 75.0471 88.8761 77.7667 88.6542L77.7631 88.6757ZM43.1736 71.864C47.9437 70.4863 54.1881 66.439 59.2946 61.3719C60.955 59.7115 61.159 59.4896 61.3809 58.7453L61.6779 57.7934C61.7137 57.7183 61.4167 57.5895 61.0266 57.4964C60.0032 57.2531 59.2195 56.6591 59.2195 56.1187C59.2195 55.8002 59.0334 55.4853 58.493 54.9056C57.6163 53.9179 57.3945 53.4885 57.3014 52.5402L57.2263 51.7744L56.1814 51.0301C55.5838 50.6007 53.4975 49.4449 51.2788 48.3284C49.5896 47.5043 47.936 46.6088 46.3227 45.6445C44.4583 44.3956 43.2094 42.9034 42.5009 41.1356C42.372 40.7814 42.2038 40.4844 42.1466 40.4844C41.9963 40.4844 37.8023 44.528 36.0131 46.4282C31.5972 51.0874 28.5591 55.1311 26.6375 58.8777C26.1544 59.8081 25.6319 60.9103 25.4816 61.3182L25.2025 62.0626L25.5389 63.3114C25.7429 63.9842 26.1723 65.0828 26.5086 65.7341C27.6824 68.0458 29.0816 69.4414 31.3933 70.5793C33.8731 71.8103 36.0703 72.2397 39.7418 72.1825C41.7172 72.1646 42.2969 72.1073 43.17 71.8461L43.1736 71.864ZM5.52447 55.5175C8.65564 52.7406 12.9784 49.7025 18.2746 46.5534C21.7421 44.4851 35.1435 37.7754 41.3128 35.0343C42.4329 34.5298 43.4384 34.0646 43.5493 34.0109C43.6603 33.9357 43.9788 33.1342 44.2758 32.2395C45.5819 28.1028 46.2332 27.2834 48.5986 26.743C48.8956 26.6679 48.9707 26.5748 48.9707 26.2778C48.9707 25.7375 49.3429 24.4886 49.6614 23.9303C49.9047 23.5009 49.9047 23.483 49.6972 23.5403C49.5683 23.5761 48.7846 23.8015 47.9652 24.0448C36.5964 27.3263 26.6625 31.6849 18.0885 37.1277C8.93834 42.9428 3.66367 49.9136 2.13566 58.2622L2.02473 58.8777L3.14479 57.7791C3.74239 57.1636 4.82309 56.1581 5.53163 55.5426L5.52447 55.5175ZM89.862 57.1028C90.7745 56.6376 92.1915 54.4941 92.714 52.7979C92.8643 52.2003 93.1613 51.642 93.5907 51.1768C94.9684 49.6488 96.1064 46.8719 96.1243 44.9718C96.1243 42.0088 94.446 40.8708 92.0055 42.1376C91.687 42.2879 91.4293 42.3988 91.39 42.3631C91.2611 42.2342 91.9482 41.5615 92.7891 41.039C93.8877 40.3126 94.0953 39.8832 94.0953 38.3373C94.1115 37.0877 93.7402 35.8639 93.0325 34.8339C92.6961 34.3294 92.5673 33.9966 92.621 33.789L92.9573 32.5401C93.4225 30.8797 93.2543 28.9796 92.5279 27.77C91.4472 25.945 90.1232 25.0504 88.2767 24.9001L87.196 24.825L87.8294 25.5335C89.7117 27.5661 90.6242 30.1175 90.252 32.3004C90.0659 33.4204 89.8977 33.6423 88.817 34.0717L88.1837 34.333L88.2588 35.1918C88.3876 36.591 88.1479 37.6144 87.2533 39.4967C86.8059 40.4486 86.4696 41.3038 86.5089 41.3969C86.6199 41.7153 87.8509 42.3094 88.8206 42.5527L89.7725 42.7782L89.1749 42.9821C88.3912 43.2255 88.223 43.5797 88.223 44.8644C88.223 46.0381 88.3912 46.5248 89.2465 47.8095C89.6365 48.3677 89.8977 48.9474 89.9371 49.2802C90.0123 49.8027 89.9944 49.8385 89.5649 49.9888C89.0782 50.1254 88.5777 50.207 88.0727 50.2321C86.3193 50.3431 86.1904 50.4003 85.4068 51.1446C84.6982 51.8174 84.6803 51.8532 84.6803 52.5975C84.6803 53.6209 85.0704 55.6929 85.3137 55.972C85.6322 56.3084 87.4 57.1851 88.0906 57.3139C88.6862 57.4635 89.3159 57.391 89.862 57.1099V57.1028ZM64.0468 55.7072C65.1848 54.8126 66.0794 53.9179 66.5804 53.1522C66.8989 52.687 66.9168 52.5939 66.7665 52.2003C66.5053 51.6027 64.7912 50.0568 63.8393 49.5916C63.205 49.3074 62.5341 49.1135 61.8461 49.0154L60.6723 48.8651L59.9459 47.9526C58.4358 46.0882 57.5984 44.6354 56.4032 41.8191C55.3583 39.4323 54.4458 38.0367 52.9929 36.6554C52.3953 36.0971 51.9695 35.6319 52.0053 35.6319C52.0804 35.6319 52.789 35.9862 53.6084 36.4156C54.9683 37.1421 55.1364 37.1993 55.7519 37.1063C57.9706 36.845 59.928 34.2936 60.6366 30.7151C60.8405 29.7096 61.2521 28.6825 61.6815 28.067C61.6994 28.0492 62.5582 28.6074 63.5637 29.3338C66.1188 31.141 66.677 31.4201 68.1299 31.4773C69.0818 31.5131 69.6221 31.4415 71.3362 31.03C74.9898 30.1354 78.9405 29.7811 81.3452 30.0996C82.705 30.2857 84.6624 30.8833 86.1153 31.5704C87.5503 32.2431 87.8294 32.2789 88.2946 31.8674C88.6846 31.531 88.6846 31.4773 88.6846 30.2284C88.6667 28.382 87.994 26.3887 86.9706 25.1971C86.4481 24.5816 84.9773 23.5761 83.5209 22.8103C83.0032 22.5357 82.4879 22.2565 81.975 21.9729C81.2844 21.5614 80.5042 21.6186 78.3786 22.1769C75.9166 22.8103 75.2654 22.8103 72.4527 22.0838C70.0658 21.4862 69.9191 21.4683 67.5681 21.8405C66.3192 22.0266 63.188 21.9157 62.1431 21.6365C61.6206 21.4862 61.0982 21.3395 60.5972 21.1534C59.6847 20.7992 58.0994 20.7419 56.6645 21.0031C53.8124 21.5077 51.651 23.0536 50.8673 25.1578C50.4558 26.2206 50.5131 26.7251 51.0534 27.0579C51.9122 27.5983 53.0466 29.0726 53.0466 29.6487C53.0466 29.6845 52.7675 29.4448 52.449 29.1084C51.6474 28.271 50.921 27.8953 50.0622 27.8953C49.5065 27.9107 48.9662 28.081 48.5021 28.387C48.038 28.6931 47.6686 29.1226 47.4356 29.6273C47.1848 30.2857 46.9733 30.9585 46.8022 31.6419C46.2797 33.5421 45.8145 34.5512 44.8269 35.8932C43.9501 37.1063 43.8213 37.6466 44.1362 39.0064C44.9199 42.4346 46.2797 43.8159 51.9623 47.0401C54.9432 48.7363 56.4712 49.6882 57.5913 50.5256C58.4501 51.1589 58.468 51.1983 58.3929 51.6814C58.2247 52.8015 58.9332 54.011 60.3324 54.9986C60.6867 55.242 60.9085 55.5032 60.9085 55.6893C60.9085 56.0257 61.8604 56.4909 62.5475 56.4909C62.9375 56.4909 63.2381 56.3227 64.0397 55.7072H64.0468ZM87.0278 49.4234C89.1892 49.4985 89.3001 49.3303 88.1479 47.9884C86.9348 46.5892 86.602 45.4549 87.0493 44.206L87.2354 43.7229L86.4696 43.3507C86.2083 43.2219 85.9471 43.0895 85.6859 42.9964C85.5571 43.501 85.4247 43.9841 85.3137 44.4887C85.0346 45.6266 84.6982 48.5717 84.6803 49.8206C84.6803 49.9315 84.8664 49.8957 85.1849 49.6918C85.6322 49.4305 85.8576 49.3948 87.0314 49.4305L87.0278 49.4234ZM79.7778 49.3125C81.084 49.2373 82.4259 49.1443 82.7802 49.087L83.4314 48.994L83.5066 46.8505C83.6175 43.7944 84.0648 41.9873 85.3889 39.0959C86.3193 37.0454 86.7308 35.2562 86.5268 33.9143C86.4517 33.3381 86.4159 33.2988 85.6322 32.9624C84.1972 32.3926 82.7028 31.9857 81.177 31.7493C79.7062 31.5453 75.3799 31.6563 73.7588 31.9747C73.0861 32.0857 71.8587 32.3469 71.0392 32.5509C69.0066 33.0161 67.9259 32.9624 66.38 32.2896C64.852 31.6169 63.8822 31.005 62.9697 30.1461C62.2433 29.4734 62.1681 29.4376 61.9821 29.663C61.8318 29.8312 61.7566 30.3358 61.7029 31.4165C61.6457 33.0769 61.3845 33.9501 60.658 35.1238C60.4966 35.3653 60.3588 35.6217 60.2465 35.8896C60.2465 35.9468 60.8047 36.5981 61.4954 37.3067C63.8822 39.7866 65.056 40.4199 66.9382 40.2875C67.5537 40.2303 67.9832 40.2518 67.9832 40.3233C67.9832 40.4736 66.7701 41.4219 66.2691 41.6831C66.0257 41.812 65.9721 41.9444 66.0079 42.2235L66.3049 44.1809C66.4731 45.301 66.6019 45.8199 66.7701 45.9702C67.2174 46.3423 69.5291 47.5375 70.9819 48.1316C72.8821 48.8973 73.927 49.1765 75.3799 49.3053C77.1691 49.4556 77.2049 49.4556 79.7778 49.3053V49.3125ZM64.3653 47.262C64.4011 47.2047 64.2723 46.124 64.029 44.8751C63.7319 43.1789 63.5637 42.5634 63.3777 42.3953C63.2488 42.2843 62.5582 41.7977 61.8676 41.2967C60.9601 40.6441 60.1003 39.9278 59.2946 39.1532L58.01 37.8864L57.3193 38.2407L56.5929 38.6307C56.654 38.9218 56.7539 39.2035 56.8899 39.4681C57.0939 39.9154 57.5054 41.014 57.8024 41.9086C58.5861 44.2382 59.2016 45.3582 60.7475 47.3872L61.3236 48.153L62.4222 48.3212C63.0377 48.4143 63.6532 48.5467 63.8214 48.6003C64.0826 48.7113 64.1184 48.6576 64.1936 48.06C64.2293 47.7988 64.2866 47.5196 64.3617 47.2584L64.3653 47.262ZM87.9797 24.0771C88.9315 23.984 89.0997 23.8516 88.6882 23.4258C88.427 23.1645 87.8294 23.1466 87.3463 23.3685C87.0278 23.5188 86.9562 23.4794 86.4517 22.9391C85.9292 22.363 85.8934 22.3415 85.2386 22.4166C84.641 22.4918 84.5479 22.4739 84.4728 22.2306C84.24 21.8308 83.9508 21.4669 83.6139 21.1499C83.1907 20.6689 82.6615 20.2928 82.068 20.0513C80.9122 19.604 80.2609 19.6612 79.1587 20.2767C75.9703 22.0087 76.1027 21.9908 73.0252 21.2071C70.1553 20.4807 68.0118 19.7364 67.3212 19.2676C66.745 18.8775 65.514 18.4481 64.487 18.3157C63.7212 18.2048 63.2381 18.373 62.5117 18.967L62.1216 19.2855L62.4759 19.901C62.959 20.7598 62.9053 20.8135 62.1789 20.1801C61.3952 19.5288 60.4648 19.0815 59.8672 19.06C59.4378 19.06 58.171 19.6183 58.0207 19.8616C57.9634 19.9368 58.3571 20.0298 58.8795 20.0656C59.4199 20.1228 60.1642 20.3089 60.6688 20.5129C61.9749 21.0711 62.6441 21.2572 63.8357 21.3717C65.1419 21.5005 67.5072 21.3538 67.7863 21.1284C67.9366 20.9996 68.3446 20.9781 69.2034 21.0532C70.3414 21.1284 70.8066 21.2393 73.5083 21.9658C75.0757 22.3952 76.1743 22.3558 78.0387 21.8548C78.8975 21.6115 79.9782 21.3717 80.4255 21.3145C81.1913 21.2393 81.338 21.2787 82.5332 21.819C84.4334 22.6779 85.4425 23.2182 86.0008 23.7192C86.559 24.2023 86.6342 24.2023 87.9761 24.0914L87.9797 24.0771ZM77.3552 20.8171L78.4931 20.2195L78.4574 19.0636C78.4395 18.262 78.4001 17.4783 78.3643 16.6982L78.2713 15.5066L77.1333 16.3833C76.4606 16.9058 75.8093 17.2958 75.5302 17.3531C74.7107 17.5034 70.667 17.3531 70.2913 17.1491C69.7907 16.7794 69.3226 16.3675 68.8921 15.9181L67.8472 14.8553L67.8293 15.4887C67.8293 15.8251 67.7935 16.4012 67.7184 16.7555C67.6253 17.4282 67.6253 17.4461 68.3517 18.3587C68.7418 18.8632 69.0603 19.3105 69.0603 19.3642C69.0603 19.7185 74.4459 21.3968 75.659 21.4147C76.049 21.4147 76.5357 21.2465 77.3552 20.8171ZM75.1938 16.5837C76.5357 16.3225 77.187 15.3527 77.6916 12.8943C78.214 10.2462 78.4753 6.09164 78.2319 4.32029C78.0065 2.71714 76.2172 2.0086 72.8069 2.11953C70.6813 2.19468 69.8046 2.39865 69.0782 3.01415C68.6309 3.38631 68.6309 3.42568 68.4269 5.19344C68.0547 8.58584 68.613 13.4132 69.5827 15.2203C70.0479 16.0971 70.4595 16.412 71.3147 16.5623C72.2845 16.7304 74.3529 16.7304 75.1902 16.5801L75.1938 16.5837Z" fill="white" />
    </g>
    <g id="vscode">   <path d="M97.2277 16.9865L77.9698 7.71486C76.8823 7.19049 75.6585 7.01745 74.4682 7.21972C73.2779 7.42199 72.18 7.98956 71.3267 8.84375L8.28596 66.3169C7.52109 67.0109 7.06324 67.9804 7.01314 69.012C6.96303 70.0436 7.32476 71.0528 8.01877 71.8177C8.10227 71.9079 8.18576 71.9948 8.27594 72.0749L13.4227 76.7508C14.0953 77.3629 14.961 77.7201 15.8694 77.7603C16.7779 77.8006 17.6718 77.5214 18.3959 76.9712L94.3287 19.3912C94.9022 18.956 95.5859 18.6895 96.3027 18.6217C97.0194 18.554 97.7409 18.6876 98.3858 19.0077C99.0308 19.3277 99.5736 19.8214 99.9531 20.4332C100.333 21.045 100.534 21.7506 100.534 22.4706V22.2468C100.534 21.1476 100.224 20.0708 99.6389 19.1402C99.0539 18.2096 98.2182 17.4631 97.2277 16.9865Z" fill="#0065A9" />
    <path d="M97.2277 90.2641L77.9698 99.539C76.8819 100.062 75.6586 100.234 74.4686 100.032C73.2786 99.8297 72.1808 99.263 71.3267 98.4101L8.28596 40.9336C7.52109 40.2396 7.06324 39.2701 7.01314 38.2385C6.96303 37.2069 7.32476 36.1977 8.01877 35.4328C8.10227 35.3426 8.18576 35.2558 8.27594 35.1756L13.4227 30.4997C14.096 29.8851 14.9636 29.5263 15.8743 29.486C16.7851 29.4457 17.681 29.7265 18.4059 30.2793L94.3287 87.8593C94.9022 88.2945 95.5859 88.561 96.3027 88.6288C97.0194 88.6965 97.7409 88.5629 98.3858 88.2428C99.0308 87.9228 99.5736 87.4291 99.9531 86.8173C100.333 86.2055 100.534 85.4999 100.534 84.7799V85.0204C100.531 86.1166 100.219 87.1897 99.6339 88.117C99.0492 89.0443 98.2154 89.7883 97.2277 90.2641Z" fill="#007ACC" />
    <path d="M77.9697 99.539C76.8818 100.062 75.6584 100.234 74.4685 100.032C73.2785 99.8297 72.1807 99.263 71.3266 98.4101C71.8062 98.8834 72.4149 99.2047 73.0763 99.3337C73.7378 99.4626 74.4225 99.3935 75.0448 99.1349C75.6672 98.8764 76.1993 98.4399 76.5746 97.8802C76.95 97.3205 77.1518 96.6625 77.1547 95.9886V11.2618C77.1553 10.5848 76.9549 9.92283 76.5789 9.35979C76.203 8.79674 75.6683 8.35794 75.0428 8.09899C74.4172 7.84004 73.7289 7.77258 73.0649 7.90517C72.401 8.03775 71.7914 8.3644 71.3132 8.84375C72.1667 7.98987 73.2643 7.42227 74.4544 7.21943C75.6445 7.0166 76.8682 7.18855 77.9563 7.71152L97.2109 16.9697C98.2044 17.444 99.0437 18.1895 99.6317 19.1203C100.22 20.0511 100.533 21.1292 100.534 22.2301V85.0204C100.534 86.1205 100.224 87.1982 99.6382 88.1295C99.0526 89.0608 98.2158 89.8077 97.2242 90.2841L77.9697 99.539Z" fill="#1F9CF0" />
    </g>>

</svg>
